<svg width="164" height="160" viewBox="0 0 164 160" fill="none" xmlns="http://www.w3.org/2000/svg">
<g clip-path="url(#clip0)">
<path d="M144.044 1.5462H142.548V3.10984H144.044V1.5462Z" fill="#ADB5BD"/>
<path d="M163.649 20.6445H122.935C122.922 20.6445 122.909 20.6419 122.897 20.6368C122.885 20.6318 122.874 20.6244 122.865 20.6151C122.856 20.6058 122.849 20.5947 122.844 20.5826C122.839 20.5705 122.837 20.5576 122.837 20.5446V20.2099C122.837 20.197 122.839 20.1842 122.844 20.1722C122.849 20.1602 122.856 20.1494 122.865 20.1402C122.874 20.1311 122.885 20.1239 122.897 20.1192C122.909 20.1144 122.922 20.1121 122.935 20.1125H163.649C163.662 20.1125 163.675 20.1151 163.687 20.1201C163.699 20.1252 163.71 20.1326 163.719 20.1419C163.728 20.1512 163.735 20.1622 163.74 20.1743C163.745 20.1864 163.747 20.1994 163.747 20.2124V20.5471C163.747 20.56 163.745 20.5728 163.74 20.5848C163.735 20.5967 163.728 20.6076 163.719 20.6167C163.71 20.6258 163.699 20.633 163.687 20.6378C163.675 20.6426 163.662 20.6448 163.649 20.6445Z" fill="#CED4DA"/>
<path d="M143.295 2.74506C141.014 2.7444 138.756 3.19301 136.649 4.06525C134.542 4.9375 132.627 6.21629 131.014 7.82859C129.402 9.4409 128.122 11.3551 127.249 13.462C126.377 15.5688 125.927 17.8269 125.927 20.1074H160.647C160.647 15.5043 158.819 11.0897 155.565 7.8339C152.311 4.57812 147.898 2.74771 143.295 2.74506V2.74506Z" fill="#A5D460"/>
<path d="M141.798 2.54529H144.796C144.811 2.54529 144.827 2.54832 144.841 2.55422C144.855 2.56012 144.868 2.56877 144.879 2.57967C144.89 2.59057 144.898 2.60352 144.904 2.61776C144.91 2.632 144.913 2.64727 144.913 2.66269V3.71177H141.684V2.66269C141.684 2.63198 141.696 2.60249 141.717 2.58054C141.739 2.5586 141.768 2.54594 141.798 2.54529Z" fill="#C3CAD0"/>
<path d="M161.853 20.6445L124.733 20.6395L125.927 21.8035L160.657 21.8085L161.853 20.6445Z" fill="#B8BFC7"/>
<path d="M143.295 2.74506C141.014 2.7444 138.756 3.19301 136.649 4.06525C134.542 4.9375 132.627 6.21629 131.014 7.82859C129.402 9.4409 128.122 11.3551 127.249 13.462C126.377 15.5688 125.927 17.8269 125.927 20.1074H160.647C160.647 15.5043 158.819 11.0897 155.565 7.8339C152.311 4.57812 147.898 2.74771 143.295 2.74506V2.74506Z" fill="#CED4DA"/>
<path d="M150.076 17.6996C143.39 17.6996 138.401 12.3093 133.511 12.3093C131.246 12.2938 129.016 12.8689 127.041 13.9778C126.303 15.9369 125.925 18.0137 125.927 20.1074H160.647C160.656 15.5406 158.86 11.1552 155.651 7.90564C156.945 12.2618 154.964 17.7021 150.076 17.6996Z" fill="#C3CAD0"/>
<path d="M144.161 1.79342C144.334 1.5831 144.423 1.31614 144.411 1.04407C144.404 0.750604 144.281 0.471897 144.069 0.2693C143.856 0.066704 143.572 -0.0432048 143.278 -0.0362489C142.985 -0.0292931 142.706 0.0939744 142.504 0.306408C142.301 0.518841 142.191 0.803048 142.198 1.09652C142.2 1.34731 142.288 1.58975 142.448 1.78342C142.461 1.79961 142.478 1.81269 142.497 1.82174C142.516 1.8308 142.537 1.83562 142.558 1.83586H144.071C144.106 1.83343 144.138 1.8183 144.161 1.79342V1.79342Z" fill="#CED4DA"/>
<path d="M1.45371 125.168L-3.05176e-05 127.224C-3.05176e-05 127.224 3.09728 130.351 3.54688 130.766C3.57222 130.789 3.60416 130.805 3.63845 130.809C3.67274 130.814 3.70771 130.809 3.7387 130.793C3.76969 130.778 3.79521 130.753 3.81182 130.723C3.82843 130.692 3.83535 130.658 3.83164 130.623C3.73173 129.377 1.45371 125.168 1.45371 125.168Z" fill="#F43435"/>
<path d="M150.026 158.916L152.179 159.992C152.179 159.992 155.309 156.895 155.721 156.446C155.745 156.421 155.761 156.389 155.766 156.355C155.771 156.321 155.766 156.286 155.751 156.255C155.735 156.224 155.711 156.199 155.681 156.183C155.65 156.166 155.616 156.159 155.581 156.163C154.335 156.261 150.026 158.916 150.026 158.916Z" fill="#F43435"/>
<path d="M112.254 31.5349C122.63 34.0951 136.253 29.9138 141.249 22.9399C141.249 22.9399 141.266 21.8034 142.038 21.8034H146.254C147.091 21.8034 145.705 23.5943 143.797 23.8666C142.847 26.3644 142.298 51.7047 111.475 55.8761C108.835 48.3402 112.254 31.5349 112.254 31.5349Z" fill="#FBB793"/>
<path d="M113.783 48.3901L110.463 47.4584C110.423 50.5757 110.671 53.6031 111.462 55.8761C142.275 51.7047 142.835 26.3544 143.784 23.8666C145.693 23.5943 147.079 21.8034 146.242 21.8034H142.033C141.264 21.8034 141.246 22.9399 141.246 22.9399C141.259 38.1716 123.562 46.8215 113.783 48.3901Z" fill="#FA9D6B"/>
<path d="M93.588 27.2787C104.329 27.2787 113.393 30.8056 116.983 31.44C118.901 38.946 115.037 52.2668 111.315 57.2824C106.571 56.7516 101.872 55.8707 97.2574 54.6472L93.588 27.2787Z" fill="#FDC55E"/>
<path d="M105.65 76.5255C97.9218 96.4181 79.1207 110.246 67.7132 114.02C55.5714 118.017 9.94127 118.134 -3.05176e-05 127.224C4.29121 98.6687 36.2383 86.4818 55.7912 94.0802C63.8591 83.0898 83.7667 60.0125 90.7431 53.8279C99.423 61.124 105.65 76.5255 105.65 76.5255Z" fill="#F43435"/>
<path d="M102.74 67.6957C127.981 96.2982 135.264 142.425 152.179 159.992C131.48 160.492 105.578 140.147 105.448 117.375C93.6455 103.09 80.7543 95.6438 76.473 90.6656C71.2276 84.561 62.8325 68.5975 79.7202 56.001C88.9646 62.5477 102.74 67.6957 102.74 67.6957Z" fill="#F54748"/>
<path d="M95.3166 33.8829L94.792 36.2684L97.2574 54.6473C101.872 55.8708 106.571 56.7516 111.315 57.2825C112.791 55.2842 114.28 51.9971 115.432 48.2903C106.08 46.1347 106.257 35.6864 95.3166 33.8829Z" fill="#FCB32B"/>
<path d="M102.74 67.6958C98.3323 65.998 94.0123 64.0806 89.7964 61.9508L89.4716 61.7859C88.7223 61.4038 87.973 61.0066 87.2236 60.5995L86.252 60.0649C85.7674 59.7952 85.2837 59.5204 84.8007 59.2407C84.481 59.0558 84.1621 58.8685 83.8441 58.6787C83.3678 58.3939 82.8957 58.1042 82.4278 57.8094C82.1181 57.6146 81.8109 57.4181 81.5061 57.2199C80.8967 56.8228 80.2997 56.4181 79.7227 56.0085C74.25 60.0899 71.4349 64.5261 70.3034 68.8648C79.8925 72.2143 97.3098 70.5558 102.74 67.6958Z" fill="#F43435"/>
<path d="M70.4983 64.6509C76.3756 68.4601 95.7262 69.9987 102.74 67.6957C105.046 50.3559 100.704 27.3111 93.5881 27.2786C79.5628 27.2112 70.4983 64.6509 70.4983 64.6509Z" fill="#FDC55E"/>
<path d="M56.1708 38.4914C56.7004 48.3528 66.4568 53.843 66.4568 53.843L62.0781 37.25L56.1708 38.4914Z" fill="#FAB005"/>
<path d="M72.7039 57.5097C62.5977 62.8051 51.5224 74.0777 47.9755 81.6986C47.9755 81.6986 49.2569 81.9483 49.2419 82.5928C49.2269 83.2372 47.6958 85.158 47.2312 85.1455C46.6767 85.1455 45.168 83.9266 44.556 82.5528C42.9 78.8061 40.3097 46.1696 66.8015 33.136C69.8214 37.3823 72.7039 57.5097 72.7039 57.5097Z" fill="#FBB793"/>
<path d="M47.9705 81.6986C51.5224 74.0778 62.5977 62.8051 72.6989 57.5097C72.6989 57.5097 71.0503 46.0198 68.9521 38.5713L61.3613 36.3732C59.3617 37.7745 57.5007 39.3636 55.8036 41.1191C59.3755 44.2089 60.6669 51.3102 64.546 55.3017C54.9044 62.0083 47.1937 74.3925 47.9705 81.6986Z" fill="#FA9D6B"/>
<path d="M85.4427 37.5846L80.4471 38.4988C74.1676 49.5067 70.4958 64.6509 70.4958 64.6509C82.8774 62.7076 93.3958 49.2993 85.4427 37.5846Z" fill="#FCB32B"/>
<path d="M93.588 27.2787C70.3459 27.2787 60.4321 35.3141 56.1708 38.4913C61.5536 41.2664 62.2455 53.8104 72.1068 60.5021C78.3364 56.5605 85.4152 52.6115 89.5316 43.1648C93.648 33.718 93.588 27.2787 93.588 27.2787Z" fill="#FDC55E"/>
<path d="M97.3947 19.9226C98.6836 19.0858 100.285 18.8885 100.392 19.1133C100.439 19.2082 100.481 19.3058 100.517 19.4055C100.597 19.5954 100.165 20.0225 98.9159 20.6894C98.7978 20.5295 98.6893 20.3627 98.5912 20.1899L98.1941 20.3472L97.3947 19.9226Z" fill="#F54748"/>
<path d="M98.3839 19.8027C100.382 18.9059 101.679 19.2132 98.9084 20.6894C98.7024 20.4134 98.5266 20.1161 98.3839 19.8027V19.8027Z" fill="#F32022"/>
<path d="M96.6205 24.3213C96.6205 24.3213 97.12 28.123 95.9336 29.7441C94.4948 29.5617 93.5831 27.9956 93.5881 27.2787C93.5881 26.6393 94.5872 25.6002 94.5872 24.696L96.6205 24.3213Z" fill="#FBB793"/>
<path d="M96.4331 28.6524C96.8902 27.0588 96.6829 24.9207 96.6329 24.4311C96.0934 24.6234 95.6588 24.7483 95.5089 24.7058C95.2242 25.725 95.8286 27.416 96.4331 28.6524Z" fill="#FA9D6B"/>
<path d="M98.0966 21.6136C99.7176 21.2364 99.2856 19.7152 98.3839 19.7952C97.8044 19.8476 94.0701 21.3863 93.4781 23.0948C93.0011 24.4786 94.6546 25.0631 95.5064 25.6251C95.9885 25.6101 98.0966 21.6136 98.0966 21.6136Z" fill="#2E2E2E"/>
<path d="M95.8611 23.7468C95.8666 23.753 95.8738 23.7573 95.8817 23.7592C95.8897 23.7611 95.8981 23.7606 95.9057 23.7576C95.9133 23.7546 95.9199 23.7493 95.9244 23.7424C95.929 23.7356 95.9313 23.7275 95.9311 23.7193C95.8936 22.3805 96.6804 20.9567 97.8669 21.0416C99.8651 21.1865 98.6811 27.9131 97.5921 27.9881C97.0925 28.0231 96.4206 27.3511 95.8636 26.5044C95.0443 25.2555 94.4499 23.6544 94.8895 23.3496C95.2667 23.0874 95.6888 23.5345 95.8611 23.7468Z" fill="#FBB793"/>
<path d="M96.7178 23.2822C96.8552 23.0074 97.3922 23.0324 97.617 23.3671C97.3369 23.2328 97.0181 23.2027 96.7178 23.2822V23.2822Z" fill="#2E2E2E"/>
<path d="M98.3464 26.0498C98.2889 26.3732 98.1739 26.6837 98.0067 26.9665C97.657 26.9965 96.3057 26.407 96.3557 25.1481C96.6379 25.4853 98.0042 26.2796 98.3464 26.0498Z" fill="white"/>
<path d="M93.4782 23.1123C94.887 21.5362 97.2249 20.4721 98.3839 19.8127C98.0916 18.9884 97.6809 18.211 97.165 17.5047C97.0453 17.3383 96.8818 17.2083 96.6925 17.1293C96.5033 17.0504 96.2959 17.0256 96.0934 17.0576C93.8578 17.4273 91.3326 19.3131 93.4782 23.1123Z" fill="#F54748"/>
<path d="M96.5156 20.8243C95.469 21.4213 94.3124 22.1706 93.4782 23.1023C92.7688 21.8534 92.5764 20.8093 92.7113 19.9576C93.2059 21.4363 95.7237 20.4921 96.5156 20.8243Z" fill="#F32022"/>
<path d="M52.0245 104.489C58.7161 103.904 61.6361 95.8161 55.7912 94.0801C36.2383 86.4818 4.29121 98.6686 -3.05176e-05 127.224C11.2127 105.565 41.7959 105.38 52.0245 104.489Z" fill="#F54748"/>
<path d="M152.179 159.992C129.579 151.015 118.134 125.19 113.238 113.955C109.766 105.985 97.6121 103.117 87.8856 100.325C93.1735 104.626 99.4479 110.114 105.448 117.375C105.578 140.142 131.467 160.485 152.157 159.992H152.179Z" fill="#F43435"/>
</g>
<defs>
<clipPath id="clip0">
<rect width="163.749" height="160" fill="white"/>
</clipPath>
</defs>
</svg>
