<svg width="78" height="160" viewBox="0 0 78 160" fill="none" xmlns="http://www.w3.org/2000/svg">
<g clip-path="url(#clip0)">
<path d="M25.8475 46.7002C22.1131 58.6459 22.2666 75.978 25.4229 84.644C25.4229 84.644 26.6119 83.844 27.0996 84.3563C27.5873 84.8687 27.8887 87.5427 27.5188 87.8962C27.0777 88.3181 24.9735 88.551 23.4337 87.9592C19.2528 86.3509 -8.0742 63.0268 2.35903 32.3765C7.99484 33.3299 25.8475 46.7002 25.8475 46.7002Z" fill="#FBB793"/>
<path d="M25.4229 84.644C22.2666 75.9779 22.1131 58.6458 25.8475 46.7002C25.8475 46.7002 15.6554 39.0698 8.24146 34.919L0.649398 39.1C0.187659 41.739 -0.0215212 44.416 0.0247111 47.0947C5.19201 46.7221 11.7018 51.2292 17.8007 51.3196C15.5211 63.994 19.1542 79.5808 25.4229 84.644Z" fill="#FA9D6B"/>
<path d="M11.7457 157.575L10.9402 159.989C10.9402 159.989 7.32633 160.016 6.67973 159.989C6.64304 159.988 6.60748 159.976 6.57789 159.955C6.54831 159.933 6.52614 159.903 6.51445 159.868C6.50275 159.833 6.50208 159.795 6.51254 159.76C6.523 159.725 6.54407 159.694 6.57288 159.671C7.57565 158.811 11.7457 157.575 11.7457 157.575Z" fill="#F43435"/>
<path d="M63.0871 157.575L62.2817 159.989C62.2817 159.989 60.7556 160.016 60.109 159.989C60.073 159.987 60.0385 159.974 60.0099 159.952C59.9813 159.93 59.9598 159.9 59.9484 159.866C59.9369 159.832 59.9359 159.795 59.9454 159.761C59.955 159.726 59.9747 159.695 60.0021 159.671C60.9856 158.909 62.016 158.209 63.0871 157.575V157.575Z" fill="#F43435"/>
<path d="M36.6178 10.4031C13.732 10.4031 0.0603298 25.8064 0.232938 41.9905C9.58668 39.2507 8.94556 39.1082 11.7731 39.9849C13.6863 40.5976 15.7625 40.4444 17.565 39.5575C27.5435 34.5299 36.6178 10.4031 36.6178 10.4031Z" fill="#FDC55E"/>
<path d="M12.332 56.0895C12.332 56.0895 23.5899 44.3412 38.2644 49.8236C41.4727 63.7967 35.5657 87.9372 35.5657 100.294C40.2645 117.873 31.8231 147.967 10.9402 159.989C13.2033 136.843 9.20039 92.1154 12.332 56.0895Z" fill="#F54748"/>
<path d="M28.2558 77.1479L38.2068 74.882C37.1109 84.4714 35.5656 93.9429 35.5656 100.294C36.3373 103.3 36.7547 106.386 36.8095 109.489C34.1957 99.3322 27.1352 93.4196 26.4858 85.5947C26.2749 83.0522 25.7105 77.1479 28.2558 77.1479Z" fill="#F43435"/>
<path d="M25.7762 23.3268C18.7267 23.3268 9.46057 39.5082 9.46057 39.5082C10.1921 39.4917 10.7593 39.6726 11.7648 39.9849C13.678 40.5976 15.7542 40.4444 17.5568 39.5575C18.4516 39.0939 19.2939 38.5355 20.0691 37.8917L25.7762 23.3268Z" fill="#FCB32B"/>
<path d="M58.4514 56.0895C61.2378 71.2298 64.0214 88.9674 65.7612 100.475C72.8985 113.352 76.2027 135.805 62.2817 159.994C50.4456 139.98 34.9574 96.4717 32.867 77.1533H28.2558C25.2119 77.1533 25.516 65.6296 25.516 49.829C35.3739 49.8236 58.4514 56.0895 58.4514 56.0895Z" fill="#F54748"/>
<path d="M12.3319 56.0896L17.554 51.2593L30.6065 48.3879L31.9956 50.3743C43.0124 51.9004 58.4513 56.0896 58.4513 56.0896C59.5472 62.035 60.6432 68.3832 61.6679 74.5971C48.4893 71.6435 38.8534 64.6104 32.6093 55.7964C28.1242 55.3526 19.9952 54.8567 12.3319 56.0896Z" fill="#F43435"/>
<path d="M58.4514 56.0896C58.4514 56.0896 40.2973 52.9552 28.549 52.9552C17.4555 52.9552 12.332 56.0896 12.332 56.0896C8.54555 56.0896 22.6419 10.4031 36.6095 10.4031C56.9719 25.7406 58.4514 56.0896 58.4514 56.0896Z" fill="#FDC55E"/>
<path d="M77.9452 35.7272C76.0273 41.1219 69.5038 40.2945 69.5038 40.2945L68.0682 32.0751L77.9452 35.7272Z" fill="#FAB005"/>
<path d="M39.8699 53.6018C37.4808 53.3716 35.0698 53.1826 32.7711 53.0703C27.3243 47.1386 24.0804 34.7546 24.0804 24.3707L39.8699 53.6018Z" fill="#FCB32B"/>
<path d="M23.7323 18.1212H23.7953V18.3952H23.7323C23.7265 18.3952 23.7209 18.3929 23.7168 18.3888C23.7127 18.3847 23.7104 18.3791 23.7104 18.3733V18.1349C23.7121 18.1306 23.7152 18.1269 23.7191 18.1245C23.7231 18.122 23.7277 18.1209 23.7323 18.1212Z" fill="#ADB5BD"/>
<path d="M23.7323 18.5815H23.7953V19.3678H23.7323C23.7265 19.3678 23.7209 19.3655 23.7168 19.3614C23.7127 19.3573 23.7104 19.3517 23.7104 19.3459V18.6034C23.7104 18.6005 23.711 18.5977 23.7121 18.595C23.7132 18.5924 23.7148 18.5899 23.7168 18.5879C23.7188 18.5859 23.7213 18.5843 23.7239 18.5832C23.7266 18.582 23.7294 18.5815 23.7323 18.5815Z" fill="#ADB5BD"/>
<path d="M23.7323 19.5376H23.7953V20.3239H23.7323C23.7265 20.3239 23.7209 20.3216 23.7168 20.3175C23.7127 20.3134 23.7104 20.3078 23.7104 20.302V19.5595C23.7104 19.5537 23.7127 19.5481 23.7168 19.544C23.7209 19.5399 23.7265 19.5376 23.7323 19.5376Z" fill="#ADB5BD"/>
<path d="M27.3708 19.8445H27.3078V19.0582H27.3708C27.3766 19.0582 27.3822 19.0605 27.3863 19.0646C27.3904 19.0687 27.3927 19.0743 27.3927 19.0802V19.8226C27.3927 19.8285 27.3904 19.834 27.3863 19.8381C27.3822 19.8422 27.3766 19.8445 27.3708 19.8445V19.8445Z" fill="#ADB5BD"/>
<path d="M24.2802 23.0529H26.8063C27.0984 23.0529 27.3351 22.8161 27.3351 22.5241V17.2088C27.3351 16.9168 27.0984 16.68 26.8063 16.68H24.2802C23.9882 16.68 23.7514 16.9168 23.7514 17.2088V22.5241C23.7514 22.8161 23.9882 23.0529 24.2802 23.0529Z" fill="#CED4DA"/>
<path d="M74.2903 34.9436C76.7561 44.733 76.2794 59.0952 62.5419 62.3418C47.1387 65.9968 29.9545 54.1224 24.0804 24.3597C23.0365 21.6199 24.4201 18.9541 25.0804 19.639C25.6886 20.2692 35.478 33.0176 51.0566 38.2397C56.3636 31.4613 74.2903 34.9436 74.2903 34.9436Z" fill="#FBB793"/>
<path d="M56.5801 56.8705C68.2243 55.9773 69.112 47.2126 69.112 40.4315C65.0653 40.5603 58.5391 37.4177 51.0566 38.2561C56.3636 31.4668 74.2903 34.9492 74.2903 34.9492C76.7561 44.7385 76.2794 59.1007 62.5419 62.3474C47.1387 66.0023 29.9545 54.1279 24.0804 24.3652C27.9956 38.9904 43.007 57.9171 56.5801 56.8705Z" fill="#FA9D6B"/>
<path d="M36.6178 10.4031C55.4157 10.4031 71.3395 18.365 77.9534 35.7272C68.5531 40.6863 60.2871 32.2449 51.0648 38.2506C46.0071 27.0228 36.6178 26.3269 36.6178 10.4031Z" fill="#FDC55E"/>
<path d="M34.5272 6.51801L36.4697 6.96185C36.4697 6.96185 36.6095 8.83587 36.6095 10.403C36.6095 12.1648 33.3546 13.3648 33.3546 13.3648C32.5079 10.9675 34.5272 6.51801 34.5272 6.51801Z" fill="#FBB793"/>
<path d="M33.1628 12.3675C33.0669 11.0196 33.4861 9.39759 33.8834 8.20029C34.1409 7.44958 34.3738 6.87148 34.4669 6.65503C35.056 7.08244 35.3437 7.25504 35.5409 7.25778L35.456 7.5537C35.404 8.63319 35.2094 10.3099 33.971 11.7127C33.7349 11.9691 33.4626 12.1897 33.1628 12.3675V12.3675Z" fill="#FA9D6B"/>
<path d="M37.7876 5.53451C37.7438 5.41122 37.7109 5.31257 37.6862 5.24133C37.7136 5.32627 37.7492 5.42766 37.7876 5.53451Z" fill="#212529"/>
<path d="M32.2039 1.80014C32.7848 1.45766 36.963 3.7591 37.8315 5.66328C38.1713 6.41399 36.5055 8.06883 35.5027 8.56474C34.9547 8.54008 32.8889 8.78942 32.8889 8.78942C31.8505 8.5401 31.1655 6.76742 31.0888 5.04133C31.0258 3.65773 31.3546 2.30427 32.2039 1.80014Z" fill="#2E2E2E"/>
<path d="M37.6752 5.21396C37.5958 4.97833 37.615 5.03861 37.6752 5.21396V5.21396Z" fill="#212529"/>
<path d="M37.6862 5.24137C37.6862 5.24137 37.6862 5.21945 37.6862 5.21123C37.6862 5.20301 37.6835 5.23041 37.6862 5.24137Z" fill="#212529"/>
<path d="M33.0752 11.2798C33.6615 11.3237 34.4451 10.5483 35.0862 9.57292C36.0397 8.14274 36.7301 6.28512 36.2287 5.92346C35.7931 5.61934 35.3026 6.13444 35.1026 6.38103C35.0962 6.38886 35.0874 6.39436 35.0776 6.39675C35.0677 6.39913 35.0574 6.39826 35.0481 6.39424C35.0388 6.39021 35.0311 6.38325 35.0261 6.37444C35.0211 6.36563 35.0191 6.35545 35.0205 6.34541C35.0698 4.79741 34.1656 3.23572 32.7957 3.23572C30.1162 3.23572 31.4861 11.2798 33.0697 11.2798H33.0752Z" fill="#FBB793"/>
<path d="M34.1108 5.83865C33.9546 5.5181 33.3327 5.53452 33.0697 5.92905C33.3952 5.77686 33.764 5.74484 34.1108 5.83865V5.83865Z" fill="#2E2E2E"/>
<path d="M34.4506 8.26337C34.457 8.5189 34.4089 8.77287 34.3094 9.00832C34.2099 9.24378 34.0613 9.45529 33.8736 9.62876C33.6859 9.80224 33.4633 9.93369 33.2207 10.0143C32.9782 10.0949 32.7212 10.1229 32.4669 10.0963C32.2049 9.64995 32.0327 9.15667 31.9601 8.64421C32.809 8.72724 33.6652 8.59631 34.4506 8.26337V8.26337Z" fill="white"/>
<path d="M31.6449 0.961647C31.7539 0.677182 31.9477 0.433138 32.2002 0.262578C32.4526 0.0920189 32.7513 0.00320336 33.0559 0.00819505C35.319 0.202722 37.8396 0.646557 37.9876 3.55351C38.0104 4.26204 37.9516 4.97086 37.8122 5.66593C35.6642 4.48781 32.7052 4.22753 31.1846 3.95628C31.1905 2.94091 31.3455 1.9319 31.6449 0.961647V0.961647Z" fill="#F54748"/>
<path d="M32.6012 3.24398C30.8724 2.82753 28.8422 3.40289 28.6833 4.06593C28.6833 4.30429 29.4011 4.4166 31.0203 4.66045C31.0863 4.4405 31.1412 4.2174 31.1847 3.99195L31.6779 4.01111L32.6012 3.24398Z" fill="#F54748"/>
<path d="M33.1108 4.25493C30.234 3.66313 28.7052 3.7371 28.6833 4.07957C28.6614 4.42205 29.4038 4.78645 31.0888 5.04125C31.0888 4.18095 33.1108 4.25493 33.1108 4.25493Z" fill="#F32022"/>
<path d="M35.0012 0.282166C36.5711 0.654781 37.8944 1.46577 38.015 3.53982C38.0378 4.24835 37.979 4.95714 37.8396 5.65221C37.0062 5.21627 36.1217 4.88587 35.2066 4.66862C35.7327 2.22744 35.5793 0.97808 35.0012 0.282166Z" fill="#F32022"/>
<path d="M25.7325 20.5788C25.8311 20.0308 26.1243 19.7568 26.3928 19.9432C26.6613 20.1295 26.4914 20.9953 26.7353 21.6556C26.9791 22.3158 25.7325 20.5788 25.7325 20.5788Z" fill="#FBB793"/>
<path d="M37.4588 98.2198C44.5522 112.001 62.3227 123.67 62.2816 159.989C53.7881 145.624 43.4124 119.16 37.4588 98.2198Z" fill="#F43435"/>
<path d="M11.1374 100.307C16.7842 122.774 26.4092 134.298 10.9484 159.989C12.321 145.849 11.3676 123.654 11.1374 100.307Z" fill="#F43435"/>
<path d="M51.0566 38.2506C46.6022 36.7238 42.3783 34.5934 38.5028 31.9189C38.3247 28.7708 39.2809 25.9461 40.9686 23.9131C42.7961 29.1352 48.5552 31.4175 51.0429 38.2506H51.0566Z" fill="#FCB32B"/>
<path d="M23.8365 11.5483C23.1008 11.4718 22.358 11.592 21.6841 11.8967C21.0101 12.2014 20.4292 12.6797 20.0007 13.2826C19.9702 13.3218 19.954 13.3704 19.9551 13.4201C19.9561 13.4699 19.9742 13.5177 20.0063 13.5556C20.0385 13.5936 20.0827 13.6193 20.1316 13.6285C20.1805 13.6376 20.231 13.6296 20.2747 13.6059C20.3106 13.5918 20.3413 13.5669 20.3624 13.5347C20.7459 12.9963 21.2649 12.569 21.8669 12.2962C22.4689 12.0234 23.1324 11.9147 23.7899 11.9812C23.8185 11.9846 23.8473 11.9822 23.8749 11.9742C23.9025 11.9662 23.9282 11.9527 23.9504 11.9346C23.9727 11.9164 23.991 11.894 24.0044 11.8685C24.0178 11.8431 24.0259 11.8153 24.0283 11.7867C24.0345 11.7296 24.0177 11.6725 23.9817 11.6278C23.9458 11.5831 23.8935 11.5545 23.8365 11.5483Z" fill="#F54748"/>
<path d="M23.7105 12.7593C23.1907 12.7046 22.6657 12.7897 22.1899 13.0059C21.7152 13.2216 21.3052 13.5579 21.0008 13.9813C20.9808 14.0044 20.9659 14.0315 20.957 14.0607C20.9481 14.09 20.9455 14.1207 20.9492 14.1511C20.9529 14.1814 20.9629 14.2106 20.9785 14.2368C20.9942 14.2631 21.0152 14.2857 21.0401 14.3034C21.065 14.3211 21.0934 14.3333 21.1234 14.3394C21.1533 14.3454 21.1842 14.3451 21.214 14.3385C21.2439 14.3319 21.272 14.3192 21.2966 14.3011C21.3212 14.2829 21.3418 14.2599 21.357 14.2334C21.6152 13.8698 21.9654 13.5812 22.3716 13.3973C22.7779 13.2134 23.2258 13.1408 23.6694 13.1867C23.7078 13.19 23.7465 13.1834 23.7817 13.1676C23.8257 13.1482 23.862 13.1148 23.8848 13.0725C23.9077 13.0302 23.9159 12.9815 23.908 12.9341C23.9002 12.8867 23.8768 12.8433 23.8415 12.8106C23.8062 12.778 23.7611 12.758 23.7132 12.7539L23.7105 12.7593Z" fill="#F54748"/>
<path d="M23.5871 13.9813C23.2806 13.9493 22.9712 13.9995 22.6905 14.1266C22.4098 14.2537 22.1679 14.4532 21.9898 14.7046C21.9627 14.7519 21.9542 14.8076 21.966 14.8608C21.9777 14.914 22.0089 14.9609 22.0534 14.9924C22.0979 15.0238 22.1525 15.0376 22.2066 15.031C22.2606 15.0244 22.3104 14.9979 22.346 14.9567C22.4788 14.7684 22.6594 14.619 22.8692 14.5238C23.0795 14.4291 23.311 14.3913 23.5405 14.4142C23.5788 14.4188 23.6175 14.4131 23.6529 14.3977C23.6878 14.3816 23.7179 14.3567 23.7405 14.3255C23.763 14.2943 23.7772 14.2579 23.7816 14.2196C23.7863 14.1625 23.7686 14.1057 23.7324 14.0613C23.6961 14.0168 23.644 13.9882 23.5871 13.9813V13.9813Z" fill="#F54748"/>
</g>
<defs>
<clipPath id="clip0">
<rect width="77.9451" height="160" fill="white"/>
</clipPath>
</defs>
</svg>
