<svg width="179" height="160" viewBox="0 0 179 160" fill="none" xmlns="http://www.w3.org/2000/svg">
<g clip-path="url(#clip0)">
<path d="M135.14 12.4965C135.14 12.4965 131.038 16.4496 128.057 16.4626C128.174 14.512 124.637 10.6109 125.17 10.7215C126.379 10.9588 132.647 10.7865 132.647 10.7865L135.14 12.4965Z" fill="#FBB793"/>
<path d="M129.796 16.0985C132.104 15.2337 134.477 13.1076 134.997 12.6102C134.292 12.1324 133.759 11.726 133.677 11.5114L133.635 11.4822C132.227 12.0673 130.745 14.2812 129.796 16.0985Z" fill="#FA9D6B"/>
<path d="M136.142 6.61556C138.209 5.72806 137.273 3.80676 136.09 4.12535C135.332 4.33341 128.837 5.79956 128.746 6.27095C128.378 8.22149 132.374 12.0316 133.642 12.5777C134.279 12.4379 136.142 6.61556 136.142 6.61556Z" fill="#2E2E2E"/>
<path d="M133.668 9.98037C133.677 9.98727 133.687 9.99123 133.699 9.99176C133.71 9.99229 133.721 9.98937 133.731 9.98335C133.74 9.97732 133.748 9.96848 133.752 9.95807C133.757 9.94765 133.758 9.93615 133.755 9.92509C133.388 8.15009 134.103 6.06626 135.706 5.90046C138.401 5.61763 138.424 14.86 137.006 15.2208C136.34 15.3866 135.296 14.6487 134.35 13.6539C132.965 12.1975 131.792 10.1949 132.306 9.68127C132.722 9.2424 133.388 9.73655 133.668 9.98037Z" fill="#FBB793"/>
<path d="M134.701 9.15787C134.815 8.75801 135.537 8.65396 135.917 9.05708C135.513 8.94567 135.082 8.9814 134.701 9.15787V9.15787Z" fill="#2E2E2E"/>
<path d="M137.527 12.4575C137.526 12.9013 137.446 13.3415 137.292 13.7578C136.834 13.8781 134.89 13.4132 134.659 11.726C135.118 12.1096 137.123 12.8443 137.527 12.4575Z" fill="white"/>
<path d="M134.324 13.6668C132.77 13.6668 130.625 10.897 130.625 10.897L132.696 6.18646C132.585 9.03751 133.417 12.438 134.324 13.6668Z" fill="#595959"/>
<path d="M137.894 2.41538C138.024 2.56294 138.115 2.7404 138.159 2.93183C138.203 3.12326 138.199 3.32264 138.147 3.51213C138.095 3.70162 137.997 3.87526 137.862 4.01746C137.726 4.15967 137.557 4.26602 137.37 4.32692C136.051 4.74954 134.191 5.49073 133.216 6.55053C132.51 7.31775 131.704 10.0648 131.317 11.5114C131.286 11.627 131.23 11.734 131.152 11.8246C131.073 11.9151 130.976 11.9869 130.866 12.0344C130.756 12.0819 130.637 12.104 130.518 12.099C130.398 12.094 130.282 12.0621 130.176 12.0056C129.289 11.507 128.535 10.8021 127.978 9.95041C127.422 9.09875 127.078 8.12546 126.977 7.11293C126.789 5.48748 127.627 3.18584 128.83 2.08053C129.438 1.48952 130.159 1.02788 130.951 0.723499C131.742 0.419118 132.586 0.278337 133.434 0.309635C134.281 0.340932 135.113 0.543675 135.879 0.905608C136.646 1.26754 137.331 1.78114 137.894 2.41538V2.41538Z" fill="#F54748"/>
<path d="M129.796 7.40557C129.241 7.3875 128.699 7.23773 128.214 6.96865C127.729 6.69957 127.315 6.31891 127.007 5.85814C126.939 6.27295 126.926 6.69478 126.968 7.11298C127.068 8.12551 127.412 9.0988 127.969 9.95047C128.526 10.8021 129.279 11.5071 130.166 12.0056C130.272 12.0621 130.389 12.094 130.508 12.099C130.628 12.104 130.747 12.082 130.856 12.0344C130.966 11.9869 131.064 11.9152 131.142 11.8246C131.22 11.7341 131.277 11.627 131.308 11.5115C131.694 10.0648 132.501 7.3178 133.206 6.55058C134.181 5.49079 136.041 4.74959 137.361 4.32697C137.613 4.24482 137.83 4.07841 137.975 3.85557C134.734 3.14037 131.951 7.40557 129.796 7.40557Z" fill="#F32022"/>
<path d="M137.101 41.1174H146.983C147.087 41.1174 147.19 41.1379 147.285 41.1776C147.381 41.2174 147.468 41.2756 147.541 41.349C147.614 41.4224 147.672 41.5095 147.711 41.6053C147.751 41.7012 147.771 41.8038 147.77 41.9074V44.3358L149.47 50.6816H143.944C142.465 45.0608 138.473 44.5699 137.094 44.5699L137.101 41.1174Z" fill="#2E2E2E"/>
<path d="M150.166 52.2648H142.588V50.2948L143.284 49.6024H149.461L150.153 50.2948L150.166 52.2648Z" fill="#595959"/>
<path d="M165.11 48.9197C165.143 48.8596 165.16 48.792 165.158 48.7235C165.157 48.6551 165.138 48.5881 165.103 48.5294C165.068 48.4706 165.018 48.422 164.958 48.3884C164.898 48.3548 164.831 48.3374 164.763 48.3378H161.434C153.888 48.3378 147.78 51.1369 147.78 54.5861C147.78 58.0353 153.765 60.7628 161.196 60.8343C161.228 60.8347 161.26 60.8289 161.29 60.817C161.32 60.8052 161.347 60.7876 161.37 60.7652C161.393 60.7429 161.411 60.7162 161.424 60.6868C161.436 60.6574 161.443 60.6258 161.443 60.5938V53.1459C163.313 51.8781 164.58 49.895 165.11 48.9197Z" fill="#FDC55E"/>
<path d="M157.971 48.5491V60.6262C159.039 60.7548 160.112 60.8243 161.187 60.8343C161.219 60.8347 161.25 60.8289 161.28 60.817C161.31 60.8051 161.337 60.7876 161.36 60.7652C161.383 60.7429 161.401 60.7162 161.414 60.6868C161.427 60.6574 161.433 60.6258 161.434 60.5937V48.3378C160.276 48.3389 159.12 48.4095 157.971 48.5491V48.5491Z" fill="#CED4DA"/>
<path d="M70.1189 146.099H78.9906L83.0738 150.182C85.0789 152.188 87.6587 153.519 90.4551 153.992C93.2514 154.464 96.1255 154.054 98.6782 152.819L165.556 120.469L127.901 129.932L67.1769 126.187L70.1189 146.099Z" fill="#E89703"/>
<path d="M167.622 159.332C175.926 156.784 180.592 147.986 178.044 139.682C175.496 131.378 166.698 126.712 158.394 129.26C150.09 131.809 145.424 140.606 147.972 148.91C150.521 157.214 159.318 161.88 167.622 159.332Z" fill="#595959"/>
<path d="M148.115 149.23C149.367 153.025 152.017 156.2 155.527 158.11C159.037 160.021 163.142 160.523 167.009 159.514C170.876 158.505 174.213 156.062 176.342 152.68C178.472 149.299 179.233 145.233 178.472 141.311C172.991 156.418 157.929 141.623 148.115 149.23Z" fill="#2E2E2E"/>
<path d="M164.683 154.301C170.225 153.392 173.981 148.163 173.072 142.621C172.164 137.079 166.935 133.323 161.392 134.231C155.85 135.14 152.094 140.369 153.003 145.911C153.911 151.453 159.14 155.21 164.683 154.301Z" fill="#ADB5BD"/>
<path d="M152.877 144.353C152.854 147.048 153.901 149.641 155.79 151.563C157.678 153.485 160.253 154.578 162.947 154.602C165.641 154.626 168.235 153.578 170.157 151.689C172.079 149.801 173.172 147.226 173.195 144.532C167.032 149.695 161.473 139.802 152.877 144.353Z" fill="#868E96"/>
<path d="M163.03 148.384C165.301 148.384 167.142 146.543 167.142 144.272C167.142 142.001 165.301 140.16 163.03 140.16C160.759 140.16 158.917 142.001 158.917 144.272C158.917 146.543 160.759 148.384 163.03 148.384Z" fill="#CED4DA"/>
<path d="M134.965 137.357L147.643 141.259C149.282 141.764 151.023 141.841 152.7 141.483C154.377 141.125 155.934 140.344 157.224 139.214L159.548 137.175C163.108 134.057 167.679 132.338 172.412 132.338H177.938C178.108 132.337 178.274 132.288 178.416 132.197C178.559 132.105 178.673 131.974 178.744 131.82C178.815 131.666 178.84 131.495 178.817 131.327C178.794 131.159 178.724 131.001 178.615 130.872L174.782 126.389C173.393 124.766 171.705 123.424 169.811 122.436L160.478 117.559L134.965 137.357Z" fill="#FAB005"/>
<path d="M28.1268 119.484L23.9852 132.793L26.794 132.348L32.4148 125.401L35.9615 124.955L38.7703 120.371L28.1268 119.484Z" fill="#2E2E2E"/>
<path d="M133.32 62.3135C141.697 67.84 144.048 76.9198 142.211 84.7448C139.376 96.8576 117.985 113.353 116.181 120.957C112.917 116.893 110.427 112.265 108.834 107.303L119.143 91.0483L133.32 62.3135Z" fill="#F54748"/>
<path d="M169.782 122.439L160.449 117.563L134.958 137.357L144.743 140.374C154.984 138.853 159.568 126.184 174.557 126.184C173.207 124.655 171.589 123.385 169.782 122.439V122.439Z" fill="#F59F00"/>
<path d="M143.95 50.6817H142.198C142.035 50.6813 141.874 50.7161 141.725 50.7839C141.577 50.8516 141.445 50.9506 141.338 51.0741C141.232 51.1977 141.153 51.3427 141.108 51.4994C141.063 51.6561 141.052 51.8208 141.076 51.9821L145.507 83.7662C146.219 88.8869 145.082 94.0936 142.299 98.4506L135.508 109.075C133.863 111.65 131.448 113.643 128.607 114.77C125.766 115.896 122.642 116.1 119.679 115.352L90.0307 107.875L95.5573 134.688L120.202 141.983L142.676 131.928C142.676 131.928 162.981 102.947 162.981 102.16C162.981 101.373 161.603 76.1363 161.603 76.1363L153.323 52.8728L149.477 50.7045L143.95 50.6817Z" fill="#FCB32B"/>
<path d="M142.669 131.906C142.669 131.906 145.985 127.172 149.938 121.477C151.271 116.782 153.466 117.719 144.347 122.589C131.343 129.539 129.116 119.042 122.637 115.762C121.639 115.723 120.648 115.582 119.679 115.342L103.893 111.357C103.168 112.611 97.55 122.319 94.1983 128.089L95.4987 134.471L96.5033 134.955L113.561 140.004L122.013 141.135L142.669 131.906Z" fill="#F29E03"/>
<path d="M104.195 133.017L103.831 135.452C103.831 135.452 107.833 136.584 108.587 136.753C108.628 136.761 108.671 136.757 108.71 136.742C108.749 136.726 108.783 136.699 108.807 136.664C108.83 136.63 108.844 136.589 108.844 136.547C108.845 136.505 108.834 136.463 108.811 136.428C107.92 135.111 104.195 133.017 104.195 133.017Z" fill="#F43435"/>
<path d="M85.1024 79.0102H69.0624C68.0621 79.0112 67.0795 79.2737 66.2118 79.7714C65.3441 80.2691 64.6216 80.9849 64.1157 81.8479C63.6098 82.7108 63.3382 83.6909 63.3277 84.6911C63.3173 85.6914 63.5683 86.677 64.056 87.5503C65.0313 89.2831 67.606 94.7966 68.0481 97.303C83.0023 97.303 92.1633 94.4032 102.183 106.536C111.077 117.296 122.894 71.9135 122.894 71.9135L95.8726 72.8887L85.1024 79.0102Z" fill="#595959"/>
<path d="M87.4561 143.402C89.3757 141.482 89.3757 138.37 87.4561 136.45C85.5365 134.531 82.4243 134.531 80.5047 136.45C78.5852 138.37 78.5852 141.482 80.5047 143.402C82.4243 145.321 85.5365 145.321 87.4561 143.402Z" fill="#D48A03"/>
<path d="M105.739 92.8687C99.0877 81.1882 73.8021 86.5132 64.9694 80.7103C64.099 81.5959 63.5385 82.7394 63.3715 83.9698C63.2045 85.2002 63.44 86.4517 64.0429 87.5372C65.0182 89.27 67.5929 94.7835 68.035 97.29C82.6869 97.29 91.7829 94.5137 101.584 105.824C104.494 100.356 108.239 97.2347 105.739 92.8687Z" fill="#2E2E2E"/>
<path d="M65.3887 86.1425C80.0764 86.1425 97.55 97.433 104.227 104.305C110.905 111.178 102.797 123.18 103.831 135.452L108.629 136.753C113.896 138.193 119.489 137.883 124.565 135.87C129.64 133.856 133.925 130.248 136.772 125.589L152.653 99.6046C154.926 95.884 155.806 91.4781 155.137 87.1698L146.684 51.7349C146.653 51.6062 146.652 51.4722 146.68 51.3428C146.709 51.2135 146.766 51.0923 146.848 50.9884C146.93 50.8845 147.034 50.8005 147.154 50.7429C147.273 50.6852 147.404 50.6554 147.536 50.6556H153.202C153.202 50.6556 170.175 73.0869 176.856 117.374C176.869 117.461 176.863 117.55 176.839 117.634C176.815 117.719 176.773 117.797 176.716 117.864C176.659 117.931 176.588 117.984 176.509 118.022C176.429 118.059 176.342 118.079 176.255 118.08H171.833L139.152 140.208C135.612 142.605 131.597 144.21 127.38 144.915C123.164 145.62 118.845 145.407 114.718 144.292L27.1581 120.622C27.0328 120.589 26.9154 120.532 26.8125 120.453C26.7097 120.374 26.6235 120.276 26.5591 120.164C26.4946 120.051 26.4532 119.928 26.4371 119.799C26.4211 119.671 26.4308 119.54 26.4656 119.416C28.1398 113.649 40.3372 86.1425 65.3887 86.1425Z" fill="#FDC55E"/>
<path d="M70.3042 101.25C57.2486 101.25 50.6687 106.701 45.386 111.08C41.3159 114.455 38.1007 117.121 32.9448 117.121C31.5176 117.121 30.1067 116.295 28.9689 114.799L28.5203 114.211C27.7061 115.892 27.0151 117.631 26.4527 119.412C26.4163 119.535 26.4051 119.664 26.4196 119.792C26.4341 119.919 26.474 120.042 26.5371 120.154C26.6002 120.266 26.6851 120.363 26.7868 120.442C26.8885 120.52 27.0048 120.577 27.1289 120.609L114.725 144.301C118.85 145.418 123.168 145.631 127.384 144.926C131.6 144.221 135.613 142.616 139.152 140.218L170.686 118.876C171.443 118.363 172.336 118.089 173.251 118.089H176.284C176.371 118.089 176.458 118.07 176.537 118.033C176.617 117.996 176.687 117.942 176.744 117.876C176.801 117.809 176.843 117.731 176.867 117.646C176.89 117.562 176.896 117.474 176.882 117.387C176.791 116.792 176.693 116.207 176.599 115.615C165.458 107.163 156.622 115.177 147.296 123.671C138.902 131.311 129.389 139.971 115.973 139.971C113.073 139.971 108.587 138.638 106.318 136.112L103.847 135.436C103.716 133.73 103.731 132.016 103.889 130.313C99.6502 118.996 89.9007 101.25 70.3042 101.25Z" fill="#FCB32B"/>
<path d="M63.8023 42.5999C56.7023 57.1899 63.0123 80.008 85.0925 80.008H107.764C98.4992 88.8798 85.9312 114.468 103.821 135.456C113.678 103.32 143.053 92.8687 139.701 71.3834C137.829 59.3551 123.57 55.0411 110.723 52.4566C96.9616 49.6836 80.6647 46.6245 63.8023 42.5999Z" fill="#F65152"/>
<path d="M123.853 55.9546C119.682 54.4267 115.124 53.3539 110.732 52.4534C97.3452 49.7617 81.5718 46.7903 65.2198 42.9282L63.5943 43.0745C56.8552 57.6776 63.2692 80.0049 85.0991 80.0049H107.771C117.208 74.1597 122.758 65.5155 123.853 55.9546Z" fill="#F54748"/>
<path d="M107.183 8.68652C79.384 9.08313 64.0072 34.515 59.8688 42.0051C69.0851 52.5055 81.159 55.0087 81.159 55.0087L92.5957 33.4194L107.183 8.68652Z" fill="#FCB32B"/>
<path d="M56.7088 83.3079L0.386805 68.2301C0.319423 68.2125 0.25627 68.1816 0.201084 68.1391C0.145899 68.0966 0.0998047 68.0434 0.0655438 67.9828C0.031283 67.9221 0.00955035 67.8553 0.00163283 67.7861C-0.00628469 67.7169 -0.000227144 67.6468 0.0194509 67.58L17.8799 0.864807L75.2065 16.2123L57.346 82.9275C57.3297 82.9947 57.3001 83.0579 57.2591 83.1134C57.2181 83.169 57.1665 83.2159 57.1072 83.2513C57.0478 83.2867 56.9821 83.3099 56.9137 83.3196C56.8453 83.3294 56.7756 83.3254 56.7088 83.3079Z" fill="#F54748"/>
<path d="M5.35431 50.5613C13.4393 44.5081 38.4681 78.0868 61.3089 64.7353L56.6504 82.6836L0.786774 67.6611L5.35431 50.5613Z" fill="#F32022"/>
<path d="M0.0194509 67.5929C-0.000227143 67.6597 -0.00628469 67.7297 0.00163283 67.7989C0.00955035 67.8681 0.031283 67.9351 0.0655438 67.9957C0.0998047 68.0563 0.145899 68.1095 0.201084 68.152C0.25627 68.1945 0.319423 68.2254 0.386805 68.243L56.7088 83.3208C56.7756 83.3404 56.8457 83.3465 56.9149 83.3386C56.9841 83.3307 57.051 83.3089 57.1116 83.2746C57.1723 83.2404 57.2254 83.1943 57.2679 83.1391C57.3104 83.0839 57.3414 83.0208 57.359 82.9534L75.2195 16.2383L17.893 0.890686L0.0194509 67.5929ZM18.9397 2.68519L73.4152 17.2688L56.1854 81.6368L1.70667 67.0499L18.9397 2.68519Z" fill="#F20D0E"/>
<path d="M17.3877 2.49034L76.2991 18.281C76.433 18.3169 76.547 18.4045 76.6163 18.5244C76.6855 18.6444 76.7043 18.787 76.6684 18.9208L72.3713 34.9526C72.0633 36.1017 71.3114 37.0814 70.281 37.6762C69.2507 38.2709 68.0263 38.432 66.8772 38.124L15.6221 24.3855C14.473 24.0775 13.4933 23.3256 12.8985 22.2953C12.3038 21.265 12.1427 20.0405 12.4507 18.8914L16.7479 2.85964C16.7838 2.72582 16.8713 2.61175 16.9913 2.54249C17.1113 2.47323 17.2539 2.45447 17.3877 2.49034Z" fill="#F54748"/>
<path d="M75.0505 15.8027L70.5448 32.6294C70.4433 33.009 70.268 33.3649 70.0289 33.6767C69.7898 33.9886 69.4916 34.2502 69.1514 34.4468C68.8112 34.6433 68.4355 34.7709 68.0459 34.8222C67.6564 34.8735 67.2605 34.8475 66.881 34.7458L15.8417 21.092C15.4621 20.9905 15.1062 20.8152 14.7944 20.5761C14.4826 20.337 14.2209 20.0389 14.0244 19.6986C13.8279 19.3584 13.7003 18.9827 13.649 18.5931C13.5977 18.2036 13.6236 17.8077 13.7254 17.4282L18.2311 0.604717C18.25 0.531881 18.2395 0.45454 18.2018 0.389431C18.164 0.324322 18.1022 0.276706 18.0296 0.256887L17.1518 0.0228309C17.116 0.012971 17.0785 0.0102604 17.0416 0.0148941C17.0047 0.0195277 16.9691 0.0313961 16.9368 0.049816C16.9045 0.0682358 16.8761 0.0928448 16.8533 0.122239C16.8305 0.151634 16.8138 0.18525 16.804 0.221132L12.3015 17.0478C12.1496 17.6146 12.1108 18.2057 12.1875 18.7874C12.2641 19.3691 12.4545 19.93 12.748 20.4381C13.0414 20.9462 13.4321 21.3915 13.8976 21.7485C14.3632 22.1056 14.8946 22.3674 15.4614 22.5191L66.5006 36.1729C67.6456 36.4789 68.8652 36.3179 69.8916 35.7255C70.918 35.133 71.6674 34.1575 71.9752 33.0131L76.4809 16.1831C76.4999 16.1111 76.4897 16.0346 76.4525 15.9701C76.4154 15.9056 76.3544 15.8583 76.2826 15.8385L75.4016 15.6044C75.3655 15.5936 75.3277 15.5902 75.2902 15.5944C75.2528 15.5986 75.2166 15.6103 75.1838 15.6288C75.151 15.6473 75.1223 15.6723 75.0994 15.7022C75.0765 15.732 75.0599 15.7662 75.0505 15.8027V15.8027Z" fill="#F20D0E"/>
<path d="M34.5784 5.35907L58.4634 11.7546L57.3249 16.0065C57.1003 16.8452 56.5518 17.5603 55.8 17.9946C55.0481 18.4288 54.1546 18.5466 53.3159 18.322L35.7586 13.6209C35.3433 13.5097 34.954 13.3178 34.6129 13.0561C34.2718 12.7945 33.9855 12.4682 33.7705 12.0959C33.5555 11.7236 33.4159 11.3127 33.3597 10.8865C33.3035 10.4603 33.3319 10.0271 33.443 9.61187L34.5816 5.35991L34.5784 5.35907Z" fill="#FDC55E"/>
<path d="M42.6941 22.9221C42.0755 22.7565 41.4956 22.4707 40.9875 22.0809C40.4793 21.6911 40.0529 21.2051 39.7327 20.6506C39.4124 20.096 39.2044 19.4838 39.1207 18.8489C39.0371 18.214 39.0793 17.5688 39.2449 16.9502C39.2627 16.8847 39.2931 16.8233 39.3345 16.7695C39.376 16.7158 39.4276 16.6707 39.4865 16.6369C39.5453 16.603 39.6103 16.5812 39.6776 16.5724C39.7449 16.5637 39.8133 16.5684 39.8788 16.5861L48.302 18.839C48.3675 18.8567 48.4289 18.8872 48.4827 18.9286C48.5364 18.97 48.5815 19.0217 48.6153 19.0806C48.6491 19.1394 48.671 19.2043 48.6797 19.2717C48.6884 19.339 48.6838 19.4074 48.6661 19.4729C48.5004 20.0915 48.2146 20.6715 47.8248 21.1796C47.4351 21.6877 46.949 22.1141 46.3945 22.4344C45.84 22.7547 45.2277 22.9626 44.5928 23.0463C43.9579 23.13 43.3128 23.0878 42.6941 22.9221V22.9221ZM40.1454 17.7207C40.0343 18.6408 40.2596 19.5702 40.7797 20.3374C41.2998 21.1046 42.0796 21.6579 42.9755 21.8955C43.8714 22.133 44.823 22.0387 45.6549 21.63C46.4868 21.2212 47.1428 20.5256 47.5022 19.6712L40.1454 17.7207Z" fill="#CED4DA"/>
<path d="M42.6266 11.7804L48.2791 13.2939L46.5764 19.653C46.5541 19.7363 46.4997 19.8073 46.425 19.8504C46.3503 19.8935 46.2616 19.9053 46.1783 19.883L41.1444 18.5351C41.0611 18.5128 40.9901 18.4583 40.947 18.3836C40.9039 18.309 40.8922 18.2203 40.9145 18.137L42.6172 11.7779L42.6266 11.7804Z" fill="#FDC55E"/>
<path d="M49.5977 45.3194C50.6885 41.2455 46.1881 36.5011 39.5456 34.7225C32.9031 32.9439 26.6339 34.8046 25.5431 38.8785C24.4523 42.9525 28.9528 47.6969 35.5953 49.4755C42.2377 51.2541 48.5068 49.3934 49.5977 45.3194Z" fill="#FDC55E"/>
<path d="M53.6206 17.2428L36.0657 12.5452C35.511 12.3952 35.0384 12.0314 34.7514 11.5336C34.4644 11.0357 34.3864 10.4444 34.5345 9.88922L35.6723 5.63379L36.3842 5.82558L35.2464 10.0778C35.1977 10.2592 35.1853 10.4485 35.2098 10.6347C35.2342 10.821 35.2951 11.0006 35.389 11.1633C35.4829 11.326 35.6079 11.4687 35.7569 11.583C35.9059 11.6974 36.076 11.7813 36.2575 11.83L53.8124 16.5308C53.9938 16.5795 54.1831 16.592 54.3693 16.5675C54.5556 16.543 54.7352 16.4821 54.8979 16.3882C55.0606 16.2943 55.2032 16.1693 55.3176 16.0203C55.432 15.8713 55.5159 15.7012 55.5646 15.5198L56.7057 11.2676L57.4176 11.4561L56.2798 15.7116C56.1298 16.267 55.7655 16.7402 55.2669 17.0273C54.7684 17.3144 54.1762 17.3919 53.6206 17.2428V17.2428Z" fill="#DE9103"/>
<path d="M105.459 51.4684C91.5585 34.0207 80.7525 28.2048 80.7525 28.2048C65.1026 41.8099 70.0733 68.282 92.199 71.9718C117.039 76.1135 129.659 47.1316 137.101 41.1174H140.303C140.303 41.1174 140.647 37.2749 136.359 37.2749C127.488 37.2749 112.852 42.99 105.459 51.4684Z" fill="#FBB793"/>
<path d="M78.6948 45.0609C85.694 51.3709 100.284 53.1459 105.46 51.4685C96.2367 39.892 88.3825 33.4389 84.1434 30.4058C82.7032 30.2205 80.8924 29.9929 79.1012 29.7914C65.4994 43.7703 70.9024 68.4219 92.1991 71.9719C117.039 76.1136 129.659 47.1317 137.101 41.1175C127.293 44.2742 117.14 66.8452 97.4233 66.8452C85.1024 66.8452 77.3164 52.5542 78.6948 45.0609Z" fill="#FA9D6B"/>
<path d="M74.0622 30.5715C76.133 42.6942 91.7081 51.4684 105.459 51.4684C113.587 44.3716 130.446 40.0902 130.446 22.636C130.446 9.47636 119.159 6.02716 113.096 6.02716C103.831 6.02716 83.9189 13.0166 74.0622 30.5715Z" fill="#FDC55E"/>
<path d="M88.2525 47.1967C93.5482 49.908 99.6632 51.4684 105.46 51.4684C113.587 44.3717 130.446 40.0902 130.446 22.6361C124.828 39.9342 101.861 33.5299 88.2525 47.1967Z" fill="#FDD07C"/>
<path d="M67.8084 151.031C72.4121 143.648 70.1588 133.931 62.7755 129.327C55.3921 124.723 45.6747 126.976 41.071 134.36C36.4672 141.743 38.7206 151.461 46.1039 156.064C53.4872 160.668 63.2047 158.415 67.8084 151.031Z" fill="#595959"/>
<path d="M38.2957 149.23C39.5477 153.025 42.1981 156.2 45.7079 158.11C49.2177 160.021 53.3233 160.523 57.19 159.514C61.0566 158.505 64.3939 156.062 66.5232 152.68C68.6525 149.299 69.4139 145.233 68.6526 141.311C63.1716 156.418 48.1102 141.623 38.2957 149.23Z" fill="#2E2E2E"/>
<path d="M53.2109 154.441C58.827 154.441 63.3798 149.888 63.3798 144.272C63.3798 138.656 58.827 134.103 53.2109 134.103C47.5948 134.103 43.0421 138.656 43.0421 144.272C43.0421 149.888 47.5948 154.441 53.2109 154.441Z" fill="#ADB5BD"/>
<path d="M63.3765 144.201C63.4006 141.506 62.3535 138.913 60.4653 136.99C58.5772 135.068 56.0028 133.975 53.3084 133.95C50.6141 133.926 48.0205 134.974 46.0982 136.862C44.1759 138.75 43.0825 141.324 43.0583 144.019C49.2123 138.85 54.7713 148.745 63.3765 144.201Z" fill="#868E96"/>
<path d="M56.1173 147.181C57.7233 145.575 57.7233 142.971 56.1173 141.365C54.5114 139.759 51.9075 139.759 50.3015 141.365C48.6955 142.971 48.6956 145.575 50.3015 147.181C51.9075 148.787 54.5114 148.787 56.1173 147.181Z" fill="#CED4DA"/>
<path d="M83.3533 142.383L76.3736 140.521L77.7293 135.446L84.709 137.309C85.3708 137.498 85.9317 137.94 86.271 138.539C86.6103 139.138 86.7009 139.847 86.5232 140.512C86.3455 141.177 85.9138 141.746 85.321 142.096C84.7281 142.446 84.0216 142.549 83.3533 142.383V142.383Z" fill="#ADB5BD"/>
<path d="M73.4159 133.013L78.1273 134.271C78.3405 134.328 78.5224 134.467 78.6329 134.658C78.7435 134.849 78.7736 135.076 78.7166 135.289L77.2179 140.902C77.161 141.115 77.0217 141.297 76.8306 141.408C76.6396 141.518 76.4124 141.548 76.1992 141.491L71.4879 140.233L73.4168 133.009L73.4159 133.013Z" fill="#2E2E2E"/>
<path d="M68.773 146.548L37.0214 138.271C36.4576 138.125 35.9553 137.802 35.588 137.35C35.2207 136.898 35.0076 136.34 34.9799 135.758L34.3297 122.754C34.3087 122.325 34.389 121.898 34.564 121.505C34.739 121.113 35.0038 120.768 35.337 120.497C35.6703 120.226 36.0626 120.037 36.4823 119.946C36.902 119.855 37.3372 119.863 37.7529 119.972L73.2788 129.23C73.9795 129.414 74.5785 129.869 74.9442 130.494C75.3099 131.12 75.4125 131.865 75.2294 132.566L72.0987 144.594C71.9137 145.292 71.4606 145.889 70.8378 146.255C70.215 146.621 69.473 146.726 68.773 146.548V146.548Z" fill="#CED4DA"/>
<path d="M34.7556 131.216L34.9799 135.768C35.0076 136.349 35.2207 136.907 35.588 137.359C35.9553 137.811 36.4576 138.134 37.0214 138.281L68.7731 146.557C69.4744 146.74 70.2194 146.637 70.8451 146.271C71.4707 145.906 71.9262 145.307 72.1117 144.607L72.7619 142.081C59.8298 144.217 53.289 127.689 34.7556 131.216Z" fill="#ADB5BD"/>
<path d="M46.5433 128.07C46.0691 127.949 45.5666 128.021 45.1456 128.271C44.7246 128.52 44.4194 128.926 44.2969 129.399L41.6702 139.477L45.2462 140.41L47.8762 130.332C47.9382 130.096 47.9529 129.85 47.9194 129.608C47.8858 129.366 47.8048 129.134 47.6809 128.923C47.557 128.713 47.3927 128.529 47.1974 128.383C47.0022 128.236 46.7799 128.13 46.5433 128.07V128.07Z" fill="#868E96"/>
<path d="M56.7739 130.735C56.2993 130.612 55.795 130.682 55.3719 130.93C54.9488 131.178 54.6416 131.584 54.5178 132.058L51.8911 142.136L55.4671 143.069L58.0971 132.991C58.2207 132.517 58.1507 132.012 57.9026 131.589C57.6545 131.166 57.2485 130.859 56.7739 130.735Z" fill="#868E96"/>
<path d="M67.0044 133.404C66.7696 133.343 66.525 133.328 66.2844 133.361C66.0439 133.394 65.8122 133.474 65.6027 133.596C65.3931 133.719 65.2098 133.882 65.0632 134.075C64.9166 134.269 64.8096 134.489 64.7483 134.724L62.1216 144.802L65.6976 145.735L68.3243 135.657C68.386 135.423 68.4007 135.178 68.3678 134.938C68.3348 134.697 68.2547 134.466 68.132 134.257C68.0094 134.047 67.8467 133.864 67.6532 133.718C67.4597 133.572 67.2392 133.465 67.0044 133.404Z" fill="#868E96"/>
<path d="M92.1991 149.945C92.1991 150.395 92.0656 150.835 91.8156 151.209C91.5655 151.583 91.2101 151.875 90.7943 152.047C90.3785 152.22 89.921 152.265 89.4795 152.177C89.0381 152.089 88.6326 151.872 88.3144 151.554C87.9961 151.236 87.7794 150.83 87.6916 150.389C87.6038 149.947 87.6488 149.49 87.8211 149.074C87.9933 148.658 88.285 148.303 88.6592 148.053C89.0334 147.803 89.4734 147.669 89.9235 147.669C90.527 147.669 91.1058 147.909 91.5326 148.336C91.9594 148.763 92.1991 149.341 92.1991 149.945Z" fill="#D48A03"/>
<path d="M44.0953 101.965C53.7797 101.965 54.4462 88.285 78.9125 91.7374C77.5114 88.7303 77.2155 88.5093 76.9197 88.4345L68.1422 86.2694C67.2125 86.1848 66.2892 86.1426 65.379 86.1426C53.5879 86.1426 44.6479 92.2348 38.3087 99.2893C38.3184 99.2893 40.5485 101.965 44.0953 101.965Z" fill="#FCB32B"/>
<path d="M78.9126 91.7374L19.6485 75.7591C19.3513 75.6846 19.0718 75.5516 18.8265 75.3679C18.5812 75.1843 18.3749 74.9536 18.2197 74.6893C18.0645 74.4251 17.9635 74.1326 17.9225 73.8289C17.8815 73.5252 17.9015 73.2163 17.9811 72.9204C18.0608 72.6245 18.1985 72.3474 18.3864 72.1053C18.5743 71.8632 18.8085 71.6609 19.0754 71.5103C19.3422 71.3596 19.6364 71.2636 19.9408 71.2279C20.2452 71.1922 20.5536 71.2174 20.8481 71.3021L80.1122 87.2803C80.7028 87.4394 81.206 87.8266 81.5111 88.3567C81.8163 88.8868 81.8983 89.5164 81.7393 90.107C81.5802 90.6976 81.193 91.2009 80.6629 91.506C80.1328 91.8111 79.5032 91.8932 78.9126 91.7341V91.7374Z" fill="#CED4DA"/>
<path d="M33.4487 102.137H29.8012C29.7236 102.137 29.6468 102.152 29.5752 102.182C29.5036 102.212 29.4386 102.256 29.3839 102.311C29.3293 102.366 29.286 102.431 29.2566 102.503C29.2272 102.574 29.2123 102.651 29.2127 102.729V109.231C29.2127 109.387 29.2746 109.537 29.3849 109.648C29.4952 109.759 29.6448 109.821 29.8012 109.822H32.0768L33.4487 102.137Z" fill="#F65152"/>
<path d="M50.9352 115.121C50.6714 115.121 50.4134 115.198 50.1938 115.344C49.9742 115.49 49.8028 115.698 49.7015 115.942C49.6001 116.185 49.5732 116.453 49.6243 116.712C49.6753 116.971 49.802 117.209 49.9883 117.395C50.1746 117.582 50.4121 117.709 50.6707 117.761C50.9293 117.813 51.1975 117.787 51.4412 117.686C51.685 117.585 51.8933 117.414 52.0399 117.195C52.1865 116.976 52.2648 116.718 52.2648 116.454C52.264 116.101 52.1237 115.763 51.8746 115.514C51.6255 115.264 51.2878 115.123 50.9352 115.121V115.121Z" fill="#ADB5BD"/>
<path d="M50.1714 116.851L26.2056 75.1968C26.0914 74.9976 26.061 74.7612 26.121 74.5396C26.1811 74.318 26.3267 74.1293 26.5259 74.015C26.725 73.9008 26.9614 73.8703 27.183 73.9304C27.4047 73.9905 27.5933 74.1361 27.7076 74.3353L51.67 115.989C51.7309 116.088 51.7713 116.198 51.7889 116.312C51.8065 116.427 51.8009 116.543 51.7725 116.656C51.7441 116.768 51.6933 116.873 51.6234 116.966C51.5534 117.058 51.4656 117.135 51.3652 117.193C51.2647 117.251 51.1537 117.288 51.0387 117.302C50.9237 117.316 50.8071 117.307 50.6958 117.275C50.5844 117.243 50.4806 117.189 50.3905 117.116C50.3005 117.043 50.2259 116.953 50.1714 116.851V116.851Z" fill="#CED4DA"/>
<path d="M37.6878 101.149H33.0065C32.9111 101.148 32.8183 101.18 32.7434 101.239C32.6684 101.298 32.6156 101.381 32.5936 101.474L30.3927 112.67L37.6878 101.149Z" fill="#FCC419"/>
<path d="M40.5682 48.871C38.9959 48.8572 37.432 48.6386 35.9161 48.2208C32.9253 47.4211 30.3213 45.9679 28.5788 44.1344C27.6588 43.1591 26.2024 41.2314 26.7551 39.1638C27.3077 37.0962 29.5378 36.1534 30.8187 35.7731C33.2341 35.0579 36.2347 35.1001 39.2191 35.8999C42.2034 36.6996 44.8139 38.1527 46.5564 39.9862C47.4731 40.9615 48.9328 42.8893 48.3801 44.9569C47.8275 47.0245 45.5973 47.9673 44.3165 48.3476C43.0984 48.7002 41.8362 48.8764 40.5682 48.871V48.871ZM34.567 36.1177C33.3799 36.1064 32.1975 36.2662 31.056 36.5923C29.9442 36.9174 28.0132 37.7269 27.5646 39.3978C27.1159 41.0688 28.3903 42.73 29.19 43.572C30.8155 45.2982 33.2927 46.6669 36.1372 47.4276C38.9817 48.1883 41.8035 48.2371 44.0824 47.5609C45.1942 47.2358 47.1253 46.4263 47.5739 44.7553C48.0225 43.0844 46.7482 41.4232 45.9484 40.5812C44.323 38.8582 41.8458 37.4863 39.0012 36.7256C37.556 36.3305 36.0653 36.1262 34.567 36.1177Z" fill="#DE9103"/>
<path d="M137.101 41.1174C136.45 41.1174 135.943 41.8912 135.943 42.8437C135.943 43.7962 136.46 44.5699 137.101 44.5699C137.741 44.5699 138.258 43.7962 138.258 42.8437C138.258 41.8912 137.741 41.1174 137.101 41.1174Z" fill="#595959"/>
<path d="M138.284 40.8217C138.609 41.3646 139.259 42.031 140.082 42.031C140.904 42.031 141.707 37.275 136.359 37.275C136.434 38.4811 138.284 40.8217 138.284 40.8217Z" fill="#FBB793"/>
</g>
<defs>
<clipPath id="clip0">
<rect width="178.803" height="160" fill="white"/>
</clipPath>
</defs>
</svg>
