<svg width="88" height="88" viewBox="0 0 88 88" fill="none" xmlns="http://www.w3.org/2000/svg">
<g filter="url(#filter0_d)">
<path fill-rule="evenodd" clip-rule="evenodd" d="M44 11C55.598 11 65 20.402 65 32C65 43.598 55.598 53 44 53C32.402 53 23 43.598 23 32C23 20.402 32.402 11 44 11Z" fill="white"/>
<path fill-rule="evenodd" clip-rule="evenodd" d="M44 11C55.598 11 65 20.402 65 32C65 43.598 55.598 53 44 53C32.402 53 23 43.598 23 32C23 20.402 32.402 11 44 11Z" stroke="white" stroke-width="2" stroke-linecap="round" stroke-linejoin="round"/>
</g>
<path fill-rule="evenodd" clip-rule="evenodd" d="M51.5413 31.9887C51.5413 30.096 41.9441 24.0413 40.8555 25.13C39.7689 26.2186 39.6621 37.6561 40.8555 38.8474C42.0509 40.0428 51.5413 33.8813 51.5413 31.9887Z" fill="#FDC55E" stroke="#FDC55E" stroke-width="1.5" stroke-linecap="round" stroke-linejoin="round"/>
<defs>
<filter id="filter0_d" x="0" y="0" width="88" height="88" filterUnits="userSpaceOnUse" color-interpolation-filters="sRGB">
<feFlood flood-opacity="0" result="BackgroundImageFix"/>
<feColorMatrix in="SourceAlpha" type="matrix" values="0 0 0 0 0 0 0 0 0 0 0 0 0 0 0 0 0 0 127 0" result="hardAlpha"/>
<feOffset dy="12"/>
<feGaussianBlur stdDeviation="11"/>
<feColorMatrix type="matrix" values="0 0 0 0 0.429167 0 0 0 0 0.429167 0 0 0 0 0.429167 0 0 0 0.1 0"/>
<feBlend mode="normal" in2="BackgroundImageFix" result="effect1_dropShadow"/>
<feBlend mode="normal" in="SourceGraphic" in2="effect1_dropShadow" result="shape"/>
</filter>
</defs>
</svg>
