<svg width="44" height="44" viewBox="0 0 44 44" fill="none" xmlns="http://www.w3.org/2000/svg">
<rect width="44" height="44" fill="#F54748"/>
<mask id="path-2-outside-1" maskUnits="userSpaceOnUse" x="9.03839" y="8.98633" width="26" height="26" fill="black">
<rect fill="white" x="9.03839" y="8.98633" width="26" height="26"/>
<path fill-rule="evenodd" clip-rule="evenodd" d="M16.0154 11.186V9.98633H11.3239V17.5484H12.8342V14.3672H15.3834V13.2104H12.8342V11.186H16.0154ZM14.7192 26.5991C14.1265 26.2921 13.4374 26.1386 12.6519 26.1386H10.0384V33.6149H12.6519C13.4374 33.6149 14.1265 33.4614 14.7192 33.1544C15.319 32.8473 15.7796 32.4153 16.1009 31.8583C16.4294 31.2942 16.5936 30.6372 16.5936 29.8875C16.5936 29.1377 16.4294 28.4807 16.1009 27.9166C15.7796 27.3454 15.319 26.9062 14.7192 26.5991ZM14.4192 31.6976C13.9908 32.1261 13.3838 32.3403 12.5984 32.3403H11.5379V27.4025H12.5984C13.3838 27.4025 13.9908 27.6238 14.4192 28.0666C14.8477 28.5022 15.0619 29.1091 15.0619 29.8875C15.0619 30.6658 14.8477 31.2692 14.4192 31.6976ZM28.9221 10.072V14.6992C28.9221 15.2062 29.0542 15.5954 29.3184 15.8667C29.5827 16.1309 29.954 16.263 30.4324 16.263C30.918 16.263 31.2929 16.1309 31.5571 15.8667C31.8213 15.5954 31.9534 15.2062 31.9534 14.6992V10.072H33.4637V14.6885C33.4637 15.324 33.3244 15.8632 33.0459 16.3059C32.7746 16.7415 32.4068 17.07 31.9427 17.2913C31.4857 17.5127 30.9751 17.6234 30.411 17.6234C29.854 17.6234 29.347 17.5127 28.89 17.2913C28.4401 17.07 28.0831 16.7415 27.8189 16.3059C27.5547 15.8632 27.4226 15.324 27.4226 14.6885V10.072H28.9221ZM28.317 33.1972C28.9025 33.5257 29.5452 33.6899 30.245 33.6899C30.9448 33.6899 31.5875 33.5257 32.173 33.1972C32.7586 32.8687 33.2191 32.4153 33.5547 31.8369C33.8975 31.2513 34.0689 30.5908 34.0689 29.8553C34.0689 29.127 33.8975 28.4736 33.5547 27.8952C33.2191 27.3097 32.7586 26.8526 32.173 26.5242C31.5946 26.1957 30.9519 26.0315 30.245 26.0315C29.5452 26.0315 28.9025 26.1957 28.317 26.5242C27.7315 26.8526 27.2673 27.3097 26.9246 27.8952C26.5818 28.4736 26.4104 29.127 26.4104 29.8553C26.4104 30.5908 26.5818 31.2513 26.9246 31.8369C27.2673 32.4153 27.7315 32.8687 28.317 33.1972ZM31.4339 32.0511C31.0912 32.2511 30.6949 32.351 30.245 32.351C29.7951 32.351 29.3953 32.2511 29.0454 32.0511C28.7026 31.844 28.4348 31.5513 28.242 31.1728C28.0492 30.7943 27.9528 30.3552 27.9528 29.8553C27.9528 29.3555 28.0492 28.9199 28.242 28.5486C28.4348 28.1701 28.7026 27.8809 29.0454 27.681C29.3953 27.481 29.7951 27.3811 30.245 27.3811C30.6949 27.3811 31.0912 27.481 31.4339 27.681C31.7767 27.8809 32.0445 28.1701 32.2373 28.5486C32.4301 28.9199 32.5265 29.3555 32.5265 29.8553C32.5265 30.3552 32.4301 30.7943 32.2373 31.1728C32.0445 31.5513 31.7767 31.844 31.4339 32.0511Z"/>
</mask>
<path fill-rule="evenodd" clip-rule="evenodd" d="M16.0154 11.186V9.98633H11.3239V17.5484H12.8342V14.3672H15.3834V13.2104H12.8342V11.186H16.0154ZM14.7192 26.5991C14.1265 26.2921 13.4374 26.1386 12.6519 26.1386H10.0384V33.6149H12.6519C13.4374 33.6149 14.1265 33.4614 14.7192 33.1544C15.319 32.8473 15.7796 32.4153 16.1009 31.8583C16.4294 31.2942 16.5936 30.6372 16.5936 29.8875C16.5936 29.1377 16.4294 28.4807 16.1009 27.9166C15.7796 27.3454 15.319 26.9062 14.7192 26.5991ZM14.4192 31.6976C13.9908 32.1261 13.3838 32.3403 12.5984 32.3403H11.5379V27.4025H12.5984C13.3838 27.4025 13.9908 27.6238 14.4192 28.0666C14.8477 28.5022 15.0619 29.1091 15.0619 29.8875C15.0619 30.6658 14.8477 31.2692 14.4192 31.6976ZM28.9221 10.072V14.6992C28.9221 15.2062 29.0542 15.5954 29.3184 15.8667C29.5827 16.1309 29.954 16.263 30.4324 16.263C30.918 16.263 31.2929 16.1309 31.5571 15.8667C31.8213 15.5954 31.9534 15.2062 31.9534 14.6992V10.072H33.4637V14.6885C33.4637 15.324 33.3244 15.8632 33.0459 16.3059C32.7746 16.7415 32.4068 17.07 31.9427 17.2913C31.4857 17.5127 30.9751 17.6234 30.411 17.6234C29.854 17.6234 29.347 17.5127 28.89 17.2913C28.4401 17.07 28.0831 16.7415 27.8189 16.3059C27.5547 15.8632 27.4226 15.324 27.4226 14.6885V10.072H28.9221ZM28.317 33.1972C28.9025 33.5257 29.5452 33.6899 30.245 33.6899C30.9448 33.6899 31.5875 33.5257 32.173 33.1972C32.7586 32.8687 33.2191 32.4153 33.5547 31.8369C33.8975 31.2513 34.0689 30.5908 34.0689 29.8553C34.0689 29.127 33.8975 28.4736 33.5547 27.8952C33.2191 27.3097 32.7586 26.8526 32.173 26.5242C31.5946 26.1957 30.9519 26.0315 30.245 26.0315C29.5452 26.0315 28.9025 26.1957 28.317 26.5242C27.7315 26.8526 27.2673 27.3097 26.9246 27.8952C26.5818 28.4736 26.4104 29.127 26.4104 29.8553C26.4104 30.5908 26.5818 31.2513 26.9246 31.8369C27.2673 32.4153 27.7315 32.8687 28.317 33.1972ZM31.4339 32.0511C31.0912 32.2511 30.6949 32.351 30.245 32.351C29.7951 32.351 29.3953 32.2511 29.0454 32.0511C28.7026 31.844 28.4348 31.5513 28.242 31.1728C28.0492 30.7943 27.9528 30.3552 27.9528 29.8553C27.9528 29.3555 28.0492 28.9199 28.242 28.5486C28.4348 28.1701 28.7026 27.8809 29.0454 27.681C29.3953 27.481 29.7951 27.3811 30.245 27.3811C30.6949 27.3811 31.0912 27.481 31.4339 27.681C31.7767 27.8809 32.0445 28.1701 32.2373 28.5486C32.4301 28.9199 32.5265 29.3555 32.5265 29.8553C32.5265 30.3552 32.4301 30.7943 32.2373 31.1728C32.0445 31.5513 31.7767 31.844 31.4339 32.0511Z" fill="white"/>
<path d="M16.0154 9.98633H16.4154V9.58633H16.0154V9.98633ZM16.0154 11.186V11.586H16.4154V11.186H16.0154ZM11.3239 9.98633V9.58633H10.9239V9.98633H11.3239ZM11.3239 17.5484H10.9239V17.9484H11.3239V17.5484ZM12.8342 17.5484V17.9484H13.2342V17.5484H12.8342ZM12.8342 14.3672V13.9672H12.4342V14.3672H12.8342ZM15.3834 14.3672V14.7672H15.7834V14.3672H15.3834ZM15.3834 13.2104H15.7834V12.8104H15.3834V13.2104ZM12.8342 13.2104H12.4342V13.6104H12.8342V13.2104ZM12.8342 11.186V10.786H12.4342V11.186H12.8342ZM14.7192 26.5991L14.5351 26.9543L14.5369 26.9552L14.7192 26.5991ZM10.0384 26.1386V25.7386H9.63839V26.1386H10.0384ZM10.0384 33.6149H9.63839V34.0149H10.0384V33.6149ZM14.7192 33.1544L14.5369 32.7983L14.5352 32.7992L14.7192 33.1544ZM16.1009 31.8583L15.7552 31.657L15.7544 31.6584L16.1009 31.8583ZM16.1009 27.9166L15.7522 28.1127L15.7552 28.1179L16.1009 27.9166ZM14.4192 31.6976L14.1364 31.4148H14.1364L14.4192 31.6976ZM11.5379 32.3403H11.1379V32.7403H11.5379V32.3403ZM11.5379 27.4025V27.0025H11.1379V27.4025H11.5379ZM14.4192 28.0666L14.1318 28.3447L14.1341 28.3471L14.4192 28.0666ZM28.9221 10.072H29.3221V9.67202H28.9221V10.072ZM29.3184 15.8667L29.0318 16.1458L29.0356 16.1496L29.3184 15.8667ZM31.5571 15.8667L31.8399 16.1496L31.8437 16.1458L31.5571 15.8667ZM31.9534 10.072V9.67202H31.5534V10.072H31.9534ZM33.4637 10.072H33.8637V9.67202H33.4637V10.072ZM33.0459 16.3059L32.7073 16.0929L32.7064 16.0944L33.0459 16.3059ZM31.9427 17.2913L31.7705 16.9303L31.7683 16.9313L31.9427 17.2913ZM28.89 17.2913L28.7134 17.6502L28.7156 17.6513L28.89 17.2913ZM27.8189 16.3059L27.4754 16.5109L27.4769 16.5133L27.8189 16.3059ZM27.4226 10.072V9.67202H27.0226V10.072H27.4226ZM28.317 33.1972L28.1213 33.5461L28.317 33.1972ZM32.173 33.1972L31.9773 32.8483L32.173 33.1972ZM33.5547 31.8369L33.2095 31.6348L33.2088 31.6361L33.5547 31.8369ZM33.5547 27.8952L33.2077 28.0941L33.2106 28.0991L33.5547 27.8952ZM32.173 26.5242L31.9755 26.872L31.9773 26.873L32.173 26.5242ZM28.317 26.5242L28.1213 26.1753L28.317 26.5242ZM26.9246 27.8952L27.2687 28.0991L27.2698 28.0973L26.9246 27.8952ZM26.9246 31.8369L26.5794 32.039L26.5804 32.0408L26.9246 31.8369ZM31.4339 32.0511L31.6355 32.3967L31.6408 32.3935L31.4339 32.0511ZM29.0454 32.0511L28.8385 32.3936L28.8469 32.3984L29.0454 32.0511ZM28.242 28.5486L28.597 28.7329L28.5984 28.7301L28.242 28.5486ZM29.0454 27.681L28.8469 27.3337L28.8438 27.3355L29.0454 27.681ZM31.4339 27.681L31.6355 27.3355L31.6355 27.3355L31.4339 27.681ZM32.2373 28.5486L31.8809 28.7301L31.8823 28.7329L32.2373 28.5486ZM32.2373 31.1728L32.5937 31.3544V31.3544L32.2373 31.1728ZM15.6154 9.98633V11.186H16.4154V9.98633H15.6154ZM11.3239 10.3863H16.0154V9.58633H11.3239V10.3863ZM11.7239 17.5484V9.98633H10.9239V17.5484H11.7239ZM12.8342 17.1484H11.3239V17.9484H12.8342V17.1484ZM12.4342 14.3672V17.5484H13.2342V14.3672H12.4342ZM15.3834 13.9672H12.8342V14.7672H15.3834V13.9672ZM14.9834 13.2104V14.3672H15.7834V13.2104H14.9834ZM12.8342 13.6104H15.3834V12.8104H12.8342V13.6104ZM12.4342 11.186V13.2104H13.2342V11.186H12.4342ZM16.0154 10.786H12.8342V11.586H16.0154V10.786ZM12.6519 26.5386C13.3846 26.5386 14.0086 26.6815 14.5352 26.9543L14.9032 26.244C14.2444 25.9027 13.4901 25.7386 12.6519 25.7386V26.5386ZM10.0384 26.5386H12.6519V25.7386H10.0384V26.5386ZM10.4384 33.6149V26.1386H9.63839V33.6149H10.4384ZM12.6519 33.2149H10.0384V34.0149H12.6519V33.2149ZM14.5352 32.7992C14.0086 33.072 13.3846 33.2149 12.6519 33.2149V34.0149C13.4901 34.0149 14.2444 33.8508 14.9032 33.5095L14.5352 32.7992ZM15.7544 31.6584C15.4735 32.1453 15.0715 32.5246 14.5369 32.7983L14.9014 33.5104C15.5664 33.17 16.0856 32.6853 16.4474 32.0582L15.7544 31.6584ZM16.1936 29.8875C16.1936 30.5772 16.0431 31.1626 15.7552 31.657L16.4466 32.0596C16.8156 31.4258 16.9936 30.6973 16.9936 29.8875H16.1936ZM15.7552 28.1179C16.0431 28.6123 16.1936 29.1977 16.1936 29.8875H16.9936C16.9936 29.0776 16.8156 28.3492 16.4466 27.7153L15.7552 28.1179ZM14.5369 26.9552C15.0688 27.2275 15.4706 27.612 15.7523 28.1127L16.4495 27.7205C16.0885 27.0787 15.5691 26.5849 14.9014 26.2431L14.5369 26.9552ZM12.5984 32.7403C13.4571 32.7403 14.1782 32.5043 14.7021 31.9805L14.1364 31.4148C13.8034 31.7478 13.3105 31.9403 12.5984 31.9403V32.7403ZM11.5379 32.7403H12.5984V31.9403H11.5379V32.7403ZM11.1379 27.4025V32.3403H11.9379V27.4025H11.1379ZM12.5984 27.0025H11.5379V27.8025H12.5984V27.0025ZM14.7067 27.7884C14.1835 27.2478 13.4608 27.0025 12.5984 27.0025V27.8025C13.3069 27.8025 13.7981 27.9999 14.1318 28.3447L14.7067 27.7884ZM15.4619 29.8875C15.4619 29.0343 15.2252 28.3155 14.7044 27.7861L14.1341 28.3471C14.4702 28.6888 14.6619 29.184 14.6619 29.8875H15.4619ZM14.7021 31.9805C15.2253 31.4573 15.4619 30.7403 15.4619 29.8875H14.6619C14.6619 30.5913 14.4701 31.0811 14.1364 31.4148L14.7021 31.9805ZM29.3221 14.6992V10.072H28.5221V14.6992H29.3221ZM29.605 15.5877C29.4354 15.4135 29.3221 15.1382 29.3221 14.6992H28.5221C28.5221 15.2742 28.673 15.7773 29.0319 16.1458L29.605 15.5877ZM30.4324 15.863C30.0289 15.863 29.771 15.7536 29.6013 15.5839L29.0356 16.1496C29.3943 16.5083 29.8791 16.663 30.4324 16.663V15.863ZM31.2742 15.5839C31.1056 15.7525 30.845 15.863 30.4324 15.863V16.663C30.9909 16.663 31.4801 16.5094 31.8399 16.1496L31.2742 15.5839ZM31.5534 14.6992C31.5534 15.1382 31.4401 15.4135 31.2705 15.5877L31.8437 16.1458C32.2025 15.7773 32.3534 15.2742 32.3534 14.6992H31.5534ZM31.5534 10.072V14.6992H32.3534V10.072H31.5534ZM33.4637 9.67202H31.9534V10.472H33.4637V9.67202ZM33.8637 14.6885V10.072H33.0637V14.6885H33.8637ZM33.3845 16.5189C33.711 15.9998 33.8637 15.3831 33.8637 14.6885H33.0637C33.0637 15.265 32.9378 15.7265 32.7073 16.0929L33.3845 16.5189ZM32.1149 17.6524C32.6478 17.3982 33.0736 17.0179 33.3854 16.5174L32.7064 16.0944C32.4755 16.465 32.1659 16.7417 31.7705 16.9303L32.1149 17.6524ZM30.411 18.0234C31.0287 18.0234 31.5999 17.9018 32.117 17.6513L31.7683 16.9313C31.3714 17.1236 30.9215 17.2234 30.411 17.2234V18.0234ZM28.7156 17.6513C29.2321 17.9015 29.7995 18.0234 30.411 18.0234V17.2234C29.9085 17.2234 29.4619 17.1239 29.0644 16.9313L28.7156 17.6513ZM27.4769 16.5133C27.78 17.013 28.1939 17.3946 28.7134 17.6502L29.0666 16.9324C28.6863 16.7453 28.3862 16.4699 28.1609 16.0984L27.4769 16.5133ZM27.0226 14.6885C27.0226 15.3795 27.1665 15.9932 27.4754 16.5109L28.1624 16.1009C27.9429 15.7331 27.8226 15.2686 27.8226 14.6885H27.0226ZM27.0226 10.072V14.6885H27.8226V10.072H27.0226ZM28.9221 9.67202H27.4226V10.472H28.9221V9.67202ZM30.245 33.2899C29.6107 33.2899 29.0359 33.1418 28.5127 32.8483L28.1213 33.5461C28.7692 33.9095 29.4797 34.0899 30.245 34.0899V33.2899ZM31.9773 32.8483C31.4541 33.1418 30.8793 33.2899 30.245 33.2899V34.0899C31.0103 34.0899 31.7208 33.9095 32.3687 33.5461L31.9773 32.8483ZM33.2088 31.6361C32.9092 32.1523 32.5007 32.5548 31.9773 32.8483L32.3687 33.5461C33.0164 33.1827 33.529 32.6782 33.9007 32.0376L33.2088 31.6361ZM33.6689 29.8553C33.6689 30.526 33.5134 31.1157 33.2095 31.6348L33.9 32.039C34.2816 31.387 34.4689 30.6557 34.4689 29.8553H33.6689ZM33.2106 28.0991C33.5138 28.6107 33.6689 29.1925 33.6689 29.8553H34.4689C34.4689 29.0614 34.2812 28.3365 33.8989 27.6913L33.2106 28.0991ZM31.9773 26.873C32.4994 27.1659 32.9079 27.571 33.2077 28.0941L33.9018 27.6963C33.5304 27.0483 33.0177 26.5394 32.3687 26.1753L31.9773 26.873ZM30.245 26.4315C30.8872 26.4315 31.4611 26.5799 31.9755 26.872L32.3705 26.1763C31.7281 25.8115 31.0167 25.6315 30.245 25.6315V26.4315ZM28.5127 26.873C29.0359 26.5795 29.6107 26.4315 30.245 26.4315V25.6315C29.4797 25.6315 28.7692 25.8119 28.1213 26.1753L28.5127 26.873ZM27.2698 28.0973C27.577 27.5724 27.9898 27.1663 28.5127 26.873L28.1213 26.1753C27.4731 26.5389 26.9576 27.0469 26.5794 27.6931L27.2698 28.0973ZM26.8104 29.8553C26.8104 29.1925 26.9655 28.6107 27.2687 28.0991L26.5804 27.6913C26.1981 28.3365 26.0104 29.0614 26.0104 29.8553H26.8104ZM27.2698 31.6348C26.9659 31.1157 26.8104 30.526 26.8104 29.8553H26.0104C26.0104 30.6557 26.1977 31.387 26.5794 32.039L27.2698 31.6348ZM28.5127 32.8483C27.9886 32.5543 27.5756 32.1509 27.2687 31.633L26.5804 32.0408C26.959 32.6796 27.4743 33.1831 28.1213 33.5461L28.5127 32.8483ZM30.245 32.751C30.7561 32.751 31.2237 32.6368 31.6355 32.3966L31.2324 31.7056C30.9586 31.8653 30.6337 31.951 30.245 31.951V32.751ZM28.8469 32.3984C29.264 32.6368 29.7338 32.751 30.245 32.751V31.951C29.8565 31.951 29.5265 31.8653 29.2438 31.7038L28.8469 32.3984ZM27.8856 31.3544C28.1101 31.7951 28.428 32.1454 28.8385 32.3935L29.2522 31.7087C28.9773 31.5426 28.7595 31.3074 28.5984 30.9912L27.8856 31.3544ZM27.5528 29.8553C27.5528 30.4072 27.6595 30.9105 27.8856 31.3544L28.5984 30.9912C28.439 30.6781 28.3528 30.3032 28.3528 29.8553H27.5528ZM27.887 28.3642C27.6594 28.8026 27.5528 29.3037 27.5528 29.8553H28.3528C28.3528 29.4072 28.439 29.0372 28.597 28.7329L27.887 28.3642ZM28.8438 27.3355C28.4301 27.5768 28.1107 27.9252 27.8856 28.367L28.5984 28.7301C28.759 28.415 28.9751 28.185 29.2469 28.0265L28.8438 27.3355ZM30.245 26.9811C29.7338 26.9811 29.264 27.0953 28.8469 27.3337L29.2438 28.0283C29.5265 27.8668 29.8565 27.7811 30.245 27.7811V26.9811ZM31.6355 27.3355C31.2237 27.0953 30.7561 26.9811 30.245 26.9811V27.7811C30.6337 27.7811 30.9586 27.8668 31.2324 28.0265L31.6355 27.3355ZM32.5937 28.367C32.3686 27.9252 32.0492 27.5768 31.6355 27.3355L31.2324 28.0265C31.5042 28.185 31.7203 28.415 31.8809 28.7301L32.5937 28.367ZM32.9265 29.8553C32.9265 29.3037 32.8199 28.8026 32.5923 28.3642L31.8823 28.7329C32.0403 29.0372 32.1265 29.4072 32.1265 29.8553H32.9265ZM32.5937 31.3544C32.8198 30.9105 32.9265 30.4072 32.9265 29.8553H32.1265C32.1265 30.3032 32.0404 30.6781 31.8809 30.9912L32.5937 31.3544ZM31.6408 32.3935C32.0514 32.1454 32.3692 31.7951 32.5937 31.3544L31.8809 30.9912C31.7198 31.3074 31.502 31.5426 31.2271 31.7087L31.6408 32.3935Z" fill="white" mask="url(#path-2-outside-1)"/>
</svg>
